<svg height="22px" version="1.1" viewBox="0 0 48 48" width="22px" xmlns="http://www.w3.org/2000/svg" xmlns:xlink="http://www.w3.org/1999/xlink"><title/>
    <desc/><g fill="none" fill-rule="evenodd" id="Page-1" stroke="none" stroke-width="1"><g id="Artboard-Copy" transform="translate(-167.000000, -369.000000)"><path d="M175.8706,404.0254 C174.7436,405.1544 174.7076,406.9634 175.7706,408.1294 L175.8196,408.1794 L175.8706,408.2284 C177.0376,409.2914 178.8456,409.2554 179.9736,408.1294 L191.9846,399.0744 C188.7876,397.8474 186.1516,395.4784 184.5796,392.4704 L175.8706,404.0254 Z M186.0006,386.0004 C186.0006,392.0744 190.9256,397.0004 197.0006,397.0004 C203.0756,397.0004 207.9996,392.0744 207.9996,386.0004 C207.9996,379.9254 203.0756,375.0004 197.0006,375.0004 C190.9256,375.0004 186.0006,379.9254 186.0006,386.0004 L186.0006,386.0004 Z" fill="#000000" id="mic"/><g id="slices" transform="translate(47.000000, 9.000000)"/></g>
    </g></svg>