<svg xmlns="http://www.w3.org/2000/svg" width="20" height="20" viewBox="0 0 24 24">
    <path fill="currentColor" d="M4.616 21q-.691 0-1.153-.462T3 19.385V4.615q0-.69.463-1.152T4.615 3h7.214q.331 0 .632.13t.518.349L16.52 7.02q.217.218.348.518t.131.632v3.618q0 .212-.144.356t-.357.144t-.356-.144t-.143-.356V8h-4V4H4.616q-.231 0-.424.192T4 4.615v14.77q0 .23.192.423t.423.192h8.924q.212 0 .356.144t.143.357t-.143.356t-.357.143zM4 20V4zm1.962-1.77q.08-.987.608-1.814t1.38-1.31l-.777-1.373q0-.006.075-.323q.092-.045.186-.026q.093.02.143.106l.783 1.404q.405-.155.811-.242t.832-.086t.84.083q.413.084.798.245l.782-1.403q.02-.02.293-.081q.092.05.126.146q.035.096-.006.177l-.767 1.373q.858.485 1.374 1.31q.516.827.595 1.815zm2.23-1.21q.162 0 .273-.122q.112-.121.112-.283t-.116-.282t-.269-.121q-.161 0-.283.12q-.12.122-.12.284t.12.282t.283.121m3.635 0q.161 0 .282-.121q.122-.121.122-.283t-.122-.282t-.282-.121t-.283.12t-.121.284t.121.282t.283.121m6.211 2.054v-4.361q0-.213.144-.357q.144-.143.357-.143t.356.143t.144.357v4.361l1.765-1.74q.146-.14.344-.131t.344.153q.134.143.14.335q.006.19-.14.337l-2.388 2.407q-.243.243-.566.243t-.565-.243l-2.388-2.407q-.134-.136-.14-.339t.14-.35q.14-.165.353-.155q.214.01.36.15z"/>
</svg>