<svg height="20" version="1.1" viewBox="0 0 20 20" width="20" xmlns="http://www.w3.org/2000/svg"><g id="layer1">
    <path d="M 9 1 L 9 2.1054688 L 8.7070312 2.1699219 L 8.2890625 2.3027344 L 7.8867188 2.46875 L 7.5 2.6699219 L 7.1308594 2.9042969 L 6.7851562 3.1699219 L 6.4628906 3.4628906 L 6.1699219 3.7871094 L 5.9023438 4.1328125 L 5.6699219 4.5 L 5.46875 4.8867188 L 5.3007812 5.2890625 L 5.1679688 5.7050781 L 5.0742188 6.1308594 L 5.0175781 6.5644531 L 5 7 L 4.9804688 7.7597656 L 4.9238281 8.5195312 L 4.8261719 9.2753906 L 4.6914062 10.023438 L 4.5195312 10.765625 L 4.3085938 11.498047 L 4.0625 12.216797 L 3.78125 12.923828 L 3.4628906 13.615234 L 3.109375 14.289062 L 2.7226562 14.943359 L 2.3027344 15.580078 L 1.8515625 16.193359 L 1.7832031 16.314453 L 1.75 16.449219 L 1.7539062 16.585938 L 1.7988281 16.720703 L 1.8769531 16.835938 L 1.9824219 16.923828 L 2.109375 16.980469 L 2.2480469 17 L 7.171875 17 L 7.296875 17.302734 L 7.4589844 17.595703 L 7.6542969 17.869141 L 7.8789062 18.121094 L 8.1308594 18.345703 L 8.4042969 18.541016 L 8.6972656 18.701172 L 9.0097656 18.832031 L 9.3320312 18.925781 L 9.6640625 18.980469 L 10 19 L 10.335938 18.980469 L 10.667969 18.925781 L 10.992188 18.832031 L 11.302734 18.701172 L 11.595703 18.541016 L 11.871094 18.345703 L 12.121094 18.121094 L 12.345703 17.869141 L 12.541016 17.595703 L 12.703125 17.302734 L 12.828125 17 L 17.751953 17 L 17.890625 16.980469 L 18.017578 16.923828 L 18.125 16.835938 L 18.203125 16.720703 L 18.246094 16.585938 L 18.25 16.449219 L 18.216797 16.314453 L 18.146484 16.193359 L 17.697266 15.580078 L 17.277344 14.943359 L 16.890625 14.289062 L 16.539062 13.615234 L 16.21875 12.923828 L 15.9375 12.216797 L 15.691406 11.498047 L 15.480469 10.765625 L 15.306641 10.023438 L 15.173828 9.2753906 L 15.076172 8.5195312 L 15.019531 7.7597656 L 15 7 L 14.980469 6.5644531 L 14.923828 6.1308594 L 14.830078 5.7050781 L 14.699219 5.2890625 L 14.53125 4.8867188 L 14.330078 4.5 L 14.095703 4.1328125 L 13.830078 3.7871094 L 13.535156 3.4628906 L 13.214844 3.1699219 L 12.867188 2.9042969 L 12.498047 2.6699219 L 12.111328 2.46875 L 11.708984 2.3027344 L 11.294922 2.1699219 L 11 2.1054688 L 11 1 L 9 1 z M 10 3 L 10.392578 3.0195312 L 10.78125 3.078125 L 11.162109 3.1738281 L 11.53125 3.3046875 L 11.884766 3.4726562 L 12.222656 3.6738281 L 12.539062 3.9082031 L 12.830078 4.171875 L 13.091797 4.4628906 L 13.326172 4.7773438 L 13.529297 5.1132812 L 13.695312 5.46875 L 13.828125 5.8398438 L 13.923828 6.21875 L 13.980469 6.6074219 L 14 7 L 14.017578 7.734375 L 14.068359 8.46875 L 14.152344 9.1992188 L 14.269531 9.9238281 L 14.419922 10.644531 L 14.605469 11.355469 L 14.822266 12.058594 L 15.070312 12.75 L 15.349609 13.429688 L 15.660156 14.095703 L 16.001953 14.748047 L 16.371094 15.382812 L 16.771484 16 L 3.2285156 16 L 3.6269531 15.382812 L 3.9980469 14.748047 L 4.3398438 14.095703 L 4.6503906 13.429688 L 4.9296875 12.75 L 5.1796875 12.058594 L 5.3945312 11.355469 L 5.578125 10.644531 L 5.7304688 9.9238281 L 5.8496094 9.1992188 L 5.9316406 8.46875 L 5.984375 7.734375 L 6 7 L 6.0195312 6.6074219 L 6.078125 6.21875 L 6.171875 5.8398438 L 6.3046875 5.46875 L 6.4707031 5.1132812 L 6.6738281 4.7773438 L 6.9082031 4.4628906 L 7.171875 4.171875 L 7.4628906 3.9082031 L 7.7773438 3.6738281 L 8.1132812 3.4726562 L 8.46875 3.3046875 L 8.8398438 3.1738281 L 9.21875 3.078125 L 9.6074219 3.0195312 L 10 3 z M 8.2714844 17 L 11.728516 17 L 11.708984 17.039062 L 11.552734 17.261719 L 11.365234 17.462891 L 11.152344 17.634766 L 10.919922 17.775391 L 10.669922 17.884766 L 10.408203 17.958984 L 10.136719 17.996094 L 9.8632812 17.996094 L 9.59375 17.958984 L 9.3320312 17.884766 L 9.0800781 17.775391 L 8.8476562 17.634766 L 8.6367188 17.462891 L 8.4492188 17.261719 L 8.2910156 17.039062 L 8.2714844 17 z " style="fill:#222222; fill-opacity:1; stroke:none; stroke-width:0px;"/></g>
</svg>