<svg width="20" height="20" viewBox="0 0 20 20" xmlns="http://www.w3.org/2000/svg">
    <path fill="#9499A0" d="M2.11069 9.43732C3.21647 7.77542 5.87904 4.58331 9.89458 4.58331C13.8801 4.58331 16.6483 7.72502 17.8345 9.4049C18.0905 9.76747 18.0905 10.2325 17.8345 10.5951C16.6483 12.2749 13.8801 15.4166 9.89458 15.4166C5.87904 15.4166 3.21647 12.2245 2.11069 10.5626C1.88009 10.2161 1.88009 9.7839 2.11069 9.43732ZM9.89458 3.33331C5.19832 3.33331 2.20919 7.03277 1.07001 8.74489C0.560324 9.51091 0.560323 10.4891 1.07001 11.2551C2.20919 12.9672 5.19832 16.6666 9.89458 16.6666C14.5412 16.6666 17.6368 13.0422 18.8556 11.3161C19.4168 10.5213 19.4168 9.4787 18.8556 8.68391C17.6368 6.95774 14.5412 3.33331 9.89458 3.33331ZM7.29165 9.99998C7.29165 8.50421 8.50421 7.29165 9.99998 7.29165C11.4958 7.29165 12.7083 8.50421 12.7083 9.99998C12.7083 11.4958 11.4958 12.7083 9.99998 12.7083C8.50421 12.7083 7.29165 11.4958 7.29165 9.99998ZM9.99998 6.04165C7.81385 6.04165 6.04165 7.81385 6.04165 9.99998C6.04165 12.1861 7.81385 13.9583 9.99998 13.9583C12.1861 13.9583 13.9583 12.1861 13.9583 9.99998C13.9583 7.81385 12.1861 6.04165 9.99998 6.04165Z"/>
</svg>